# xmcd CD database file
#
# Track frame offsets:
#	150
#	6697
#	19445
#	26869
#	36890
#	42347
#	52393
#	71120
#	102059
#
# Disc length: 1404 seconds
#
# Revision: 0
# Processed by: cddbd v1.5.2PL0 Copyright (c) Steve Scherf et al.
# Submitted via: CDex 1.70beta2
#
DISCID=86057a09
DTITLE=Шевцов Дмитрий - Прощание с Муми-Долом
DYEAR=2003
DGENRE=Blues
TTITLE0=Утро в Муми-Доле
TTITLE1=Заботы Муми-Тролля
TTITLE2=Снифф-Непоседа
TTITLE3=Хотифнатт
TTITLE4=Шляпа Волшебника
TTITLE5=История одного Хемуля
TTITLE6=Прогулки с Мумриком
TTITLE7=Блюзовый Тролль или печаль Мум-Папы - Встреча друзей
TTITLE8=Колыбельная маленькому Хемулю
EXTD=YEAR: 2003
EXTT0=
EXTT1=
EXTT2=
EXTT3=
EXTT4=
EXTT5=
EXTT6=
EXTT7=
EXTT8=
PLAYORDER=
